<?xml version='1.0' encoding='utf-8'?>
<svg xmlns="http://www.w3.org/2000/svg" enable-background="new 100 100 450 300" version="1.1" viewBox="100 100 450 300">
<g clip-rule="evenodd" fill-rule="evenodd">
	<path d="m255.14 222.48c0-2.41 0.037-4.712-7e-3 -7.014-0.118-6.109 0.188-12.176 1.438-18.182 1.88-9.032 5.618-17.146 11.813-24.036 1.136-1.263 2.48-2.373 3.858-3.374 2.945-2.141 6.196-2.321 9.513-1.008 2.804 1.109 5.595 2.27 8.313 3.574 4.809 2.307 5.645 3.328 7.404 8.382 0.75-1.172 1.507-2.229 2.134-3.357 2.216-3.994 4.976-7.428 9.393-9.124 2.229-0.856 4.573-1.781 6.958-1.147 6.771 1.8 13.483 3.84 19.124 8.259 5.051 3.957 7.416 9.324 7.811 15.616 0.097 1.541-0.095 3.102-0.189 4.651-0.112 1.841-0.84 2.363-2.637 1.881-0.525-0.141-1.016-0.411-1.686-0.688 0 0.937 0.031 1.793-6e-3 2.646-0.084 1.94-1.517 2.852-3.194 1.886-0.933-0.538-1.717-1.405-2.427-2.243-1.439-1.7-2.783-3.481-4.351-5.461 0 1.651-0.146 3.058 0.023 4.426 1.358 10.983 4.133 21.578 9.539 31.295 2.738 4.923 4.182 10.199 5.438 15.582 0.596 2.554 1.052 5.14 1.59 7.805 1.598 0.19 3.187 0.102 4.708-0.837 2.879-1.777 2.86-1.729 1.93-4.963-2.091-7.263-4.357-14.486-6.137-21.826-1.754-7.23-3.172-14.559-2.574-22.1 0.667-8.415 2.985-16.286 7.947-23.18 3.039-4.222 7.107-7.228 12.35-8.159 1.459-0.259 3.148-0.073 4.559 0.412 5.047 1.736 9.994 3.735 14.04 7.667 0.233-0.5 0.403-0.838 0.55-1.186 0.867-2.052 2.133-3.82 3.794-5.299 1.364-1.214 2.949-1.88 4.797-1.774 2.371 0.136 4.796 0.043 7.095 0.531 2.739 0.582 5.382 1.64 8.037 2.576 0.515 0.182 0.947 0.701 1.329 1.141 6.066 6.994 9.218 15.354 11.304 24.209 1.278 5.422 2.727 10.813 3.756 16.282 0.984 5.229 1.774 10.521 2.195 15.822 0.453 5.708 0.521 11.458 0.502 17.189-0.036 10.834-1.753 21.396-5.696 31.538-2.74 7.045-5.306 14.16-9.061 20.77-3.08 5.424-6.703 10.447-10.604 15.302-1.359 1.69-2.773 3.289-4.531 4.509-1.426 0.99-3.064 1.667-4.569 2.552-6.751 3.966-13.811 7.236-21.29 9.581-8.043 2.521-16.217 4.263-24.666 4.771-9.013 0.541-18.015 0.535-26.984-0.365-5.256-0.527-10.461-1.573-15.683-2.418-10.5-1.699-20.353-5.399-29.857-10.013-12.654-6.142-24.008-14.018-32.351-25.628-4.914-6.838-9.228-14.074-12.576-21.778-2.904-6.682-4.806-13.688-4.71-21.152 0.108-8.402 2.879-15.805 7.981-22.293 4.826-6.137 11.208-9.93 18.994-11.209 1.88-0.313 3.75-0.701 5.569-1.041zm96.681 60.035c-0.153-0.068-0.307-0.136-0.459-0.204 0.342-1.604 0.559-3.248 1.048-4.807 1.646-5.24 2.839-10.552 2.435-16.077-0.172-2.346-0.702-4.665-1.091-7.136-1.528 0.812-2.726 1.681-4.063 2.094-1.365 0.421-2.868 0.395-4.402 0.575 0.848 1.766 0.972 3.627 0.53 5.537-0.246 1.063-0.471 2.189-1.683 2.545-1.226 0.36-2.271-0.142-3.122-1.032-0.415-0.435-0.777-0.921-1.184-1.406 0 2.599 0.08 4.948-0.017 7.29-0.198 4.81-2.333 8.938-4.745 12.952-0.061 0.1-0.147 0.189-0.236 0.268-0.806 0.711-1.747 0.426-1.975-0.638-0.134-0.619-0.148-1.265-0.216-1.898-0.402-3.801-2.112-7.09-4.082-10.624-0.346 3.079-0.422 5.761 1.373 8.179 0.298 0.4 0.399 1.365 0.136 1.657-0.309 0.342-1.13 0.353-1.706 0.292-0.929-0.099-1.83-0.455-2.76-0.556-2.529-0.275-4.601-1.466-6.456-3.101-0.616-0.543-0.877-1.269-0.376-2.036 0.531-0.813 1.315-0.834 2.114-0.48 0.505 0.224 0.941 0.606 1.446 0.832 1.444 0.646 2.908 1.248 4.243 1.815-0.062-2.813-0.177-5.353-0.134-7.89 0.012-0.699 0.374-1.479 0.793-2.066 0.61-0.855 1.877-0.759 2.273 0.171 1.68 3.935 4.48 7.377 5.172 11.746 0.02 0.125 0.142 0.234 0.238 0.387 1.397-3.644 2.219-10.168 1.645-14.314-0.379-2.738-1-5.441-1.495-8.164-0.045-0.252-0.055-0.663 0.087-0.763 0.216-0.151 0.636-0.215 0.865-0.104 0.527 0.259 1.063 0.575 1.471 0.992 1.223 1.252 2.386 2.563 3.571 3.853 0.575 0.624 1.149 1.25 1.835 1.994 0.545-1.7 0.582-3.174 0.191-4.675-0.862-3.31-1.729-6.619-2.556-9.938-1.847-7.414-3.973-14.711-7.117-21.725-2.608-5.818-5.266-11.635-6.225-18.096-1.058-7.125-2.469-14.156-1.616-21.452 0.521-4.456-0.931-8.591-3.666-12.181-1.338-1.756-3.247-2.904-5.408-2.86-5.401 0.11-9.075 3.397-11.66 7.656-2.315 3.815-3.464 8.238-3.931 12.685-0.748 7.114-0.568 14.257 0.805 21.29 1.439 7.371 3.191 14.681 4.737 22.031 0.621 2.951 1.148 5.928 1.554 8.916 0.465 3.427-0.493 6.641-1.914 9.717-1.929 4.18-3.608 8.474-7.154 11.725-3.88 3.56-8.078 6.188-13.547 6.066-0.352-8e-3 -0.696-0.357-1.043-0.548 0.218-0.325 0.376-0.733 0.672-0.954 0.301-0.225 0.732-0.301 1.12-0.379 4.311-0.87 7.625-3.353 10.391-6.603 1.2-1.409 2.171-3.029 3.124-4.627 0.509-0.854 0.239-1.477-0.792-2.032-1.667-0.897-3.235-2.023-4.71-3.219-1.498-1.213-2.833-2.627-3.964-3.692-0.78 2.407-1.612 5.075-2.518 7.718-0.424 1.239-1.305 2.399-1.421 3.647-0.19 2.027-1.443 3.108-2.848 4.15-4.127 3.06-8.355 5.987-12.408 9.142-4.887 3.803-10.172 6.785-16.044 8.769-6.565 2.218-12.954 2.302-19.122-1.263-0.101-0.058-0.244-0.041-0.423-0.067 0.07 0.178 0.087 0.259 0.129 0.324 0.322 0.503 0.659 0.996 0.972 1.504 6.737 10.941 15.466 20.023 25.891 27.473 4.593 3.282 9.198 6.571 14.353 8.979 5.568 2.602 11.318 4.669 17.235 6.339 7.915 2.233 15.945 3.909 24.123 4.585 6.383 0.527 12.814 0.585 19.226 0.621 9.003 0.05 17.856-1.177 26.559-3.54 9.351-2.54 18.363-6.034 27.388-9.5 0.49-0.188 0.967-0.588 1.291-1.011 7.538-9.832 14.422-20.056 18.653-31.82 3.268-9.082 5.937-18.303 6.319-28.046 0.125-3.18 0.602-6.35 0.658-9.528 0.192-10.956 0.196-21.909-1.109-32.819-1.046-8.749-3.115-17.218-6.725-25.277-0.817-1.825-1.749-3.599-2.568-5.273-0.837 0.538-1.478 1.265-2.198 1.356-3.377 0.429-6.036 2.021-7.966 4.742-1.324 1.868-2.41 3.904-3.614 5.857-0.729 1.183-1.429 2.39-2.239 3.516-0.813 1.129-1.86 1.942-3.305 1.605 0.443 1.565 1.041 3.059 1.272 4.606 0.771 5.149 1.53 10.305 2.06 15.482 0.399 3.898 0.214 7.795-1.521 11.46-0.179 0.377-0.119 1.028 0.094 1.403 1.081 1.903 2.209 3.781 3.392 5.623 4.222 6.573 8.284 13.233 11.195 20.519 1.65 4.128 2.88 8.366 2.767 12.866-0.053 2.103-0.282 4.202-0.473 6.299-0.03 0.334-0.271 0.649-0.458 1.072-0.15-0.211-0.185-0.237-0.19-0.269-0.032-0.195-0.06-0.392-0.087-0.588-1.191-8.571-3.582-16.659-8.54-23.947-2.743-4.031-4.825-8.51-7.225-12.776-3.001-5.333-6.18-10.562-8.333-16.341-2.84-7.625-4.483-15.503-5.256-23.568-0.409-4.27-0.607-8.563-0.797-12.849-0.282-6.391-3.444-11.119-8.371-14.871-0.667-0.507-1.305-0.944-2.271-0.552-6.025 2.442-10.742 6.299-13.583 12.263-2.813 5.905-4.55 11.969-4.025 18.658 0.489 6.246 1.049 12.461 2.715 18.507 2.271 8.246 4.75 16.435 7.025 24.679 1.096 3.967 1.888 8.076 1.223 12.168-1.146 7.065-3.486 13.796-6.592 20.25-0.136 0.288-0.444 0.493-0.674 0.735zm-124.54-18.83c0.724-1.456 1.41-2.932 2.178-4.363 1.591-2.966 3.623-5.443 7.149-6.199 0.338-0.072 0.637-0.319 0.958-0.477 1.715-0.847 3.405-0.804 4.983 0.288 1.584 1.096 2.222 2.69 2.007 4.574-0.197 1.725-0.451 3.447-0.786 5.15-0.835 4.25-2.792 8.006-5.186 11.57-1.033 1.538-1.967 3.144-2.963 4.745 3.393 2.228 6.933 3.404 10.754 3.285 6.658-0.206 12.842-2.196 18.419-5.815 2.933-1.903 5.62-4.185 8.442-6.263 3.271-2.407 6.574-4.77 9.843-7.178 0.396-0.292 0.809-0.696 0.976-1.139 0.696-1.843 1.181-3.772 1.968-5.572 1.125-2.573 2.088-5.177 2.237-7.994 0.038-0.717-0.217-1.556-0.608-2.166-0.728-1.134-1.601-2.19-2.523-3.177-0.377-0.404-1.063-0.804-1.565-0.756-1.65 0.157-3.345 0.327-4.905 0.845-3.457 1.147-6.86 1.192-10.301 0.078-1.958-0.634-3.354-1.86-3.738-3.943-0.365-1.975 0.226-3.614 2.038-4.687 0.958-0.567 1.861-1.25 2.869-1.706 1.714-0.775 3.491-1.412 5.388-2.164-0.462-0.251-0.862-0.478-1.27-0.688-3.24-1.668-6.834-2.039-10.305-2.898-4.483-1.11-11.503 3.696-11.593 7.884-0.018 0.815-0.361 1.213-1.318 0.897-4.267-1.409-7.841-0.051-11.133 2.736-4.368 3.697-7.817 8.121-10.9 12.907-2.531 3.931-1.562 8.083-1.115 12.226zm33.965-41.904c1.329 0.069 2.617-4e-3 3.849 0.226 4.424 0.826 8.48 2.704 12.387 4.831 1.855 1.01 3.602 2.385 5.063 3.915 2.107 2.205 3.928 4.687 5.837 7.078 1.078 1.35 2.089 2.753 3.327 4.392 0-0.596 7e-3 -0.824-1e-3 -1.051-0.071-2.045 0.771-2.615 2.63-1.746 0.706 0.33 1.379 0.731 2.194 1.168-0.047-0.335-0.035-0.537-0.104-0.705-1.418-3.451-2.841-6.899-4.273-10.344-0.686-1.649-1.534-3.244-2.069-4.939-2.357-7.462-4.149-15.029-3.81-22.946 0.013-0.303-0.125-0.744-0.347-0.904-0.989-0.708-2.034-1.338-3.169-2.066-0.936 0.907-2.229 1.1-3.629 0.956-1.572-0.162-2.209-0.72-2.357-2.294-0.22-2.335-0.246-4.698-0.616-7.008-0.65-4.063-2.466-7.653-4.873-10.993-6.95 7.113-12.184 29.27-10.039 42.43zm35.48-27.662c-0.153-0.037-0.306-0.073-0.459-0.109-1.644 2.385-3.597 4.466-6.036 6.021-0.663 0.422-0.852 0.867-0.885 1.623-0.279 6.319 0.908 12.435 2.511 18.49 0.872 3.294 1.521 6.633 2.997 9.777 1.735 3.695 3.124 7.554 4.621 11.359 0.32 0.813 0.56 1.758-0.255 2.438-0.85 0.709-1.798 0.412-2.694-6e-3 -0.352-0.164-0.688-0.363-1.219-0.646 1.512 2.897 2.397 5.899 5.227 7.521 0.972 0.557 1.976 1.056 3.235 1.725 0.129-4.18 0.549-8.014-0.229-11.775-1.224-5.914-2.689-11.778-4.024-17.669-1.567-6.915-2.865-13.867-2.793-21.002 0.024-2.583 3e-3 -5.165 3e-3 -7.747zm-62.524 84.319c1.262-1.905 2.268-3.429 3.278-4.948 1.967-2.961 3.566-6.105 4.632-9.501 0.249-0.794 0.314-1.645 0.494-2.634-3.903 2.021-8.595-0.355-7.676-6.127-0.832 0.713-1.554 1.201-2.113 1.834-2.186 2.477-3.594 5.418-4.836 8.44-0.148 0.36-0.111 0.886 0.031 1.263 1.037 2.743 1.984 5.535 3.253 8.17 0.619 1.283 1.868 2.263 2.937 3.503zm154.77-79.456c1.493-2.328 2.789-4.414 4.15-6.457 2.625-3.939 5.87-7.223 10.172-9.333 1.373-0.674 1.788-1.377 1.623-3.067-0.15-1.539-1.359-3.387-2.391-3.615-0.221-0.049-0.47 1e-3 -0.702 0.033-2.612 0.351-4.745 1.672-6.024 3.874-2.494 4.29-4.73 8.729-7.061 13.113-0.104 0.197-0.125 0.464-0.11 0.693 0.094 1.463 0.207 2.923 0.343 4.759zm-108.35-4.253c3.301-5.795 3.941-11.993 2.442-18.4-0.333-1.422-1.248-2.86-2.272-3.931-1.435-1.501-3.849-1.305-5.301 0.075-1.465 1.392-1.521 3.153-0.231 4.986 3.631 5.164 5.975 10.732 5.362 17.27zm105.42 30.557c1.084-8.505 1.179-16.895-2.532-24.91-1.443 1.262-1.443 1.262-3.79 0.937 1.128 8.267 2.958 16.309 6.322 23.973zm-99.059-50.836c0.112 0.306 0.207 0.549 0.291 0.797 1.839 5.446 2.065 10.933 0.039 16.349-0.648 1.733-0.549 3.384-0.537 5.429 0.903-0.767 1.702-1.285 2.298-1.978 2.613-3.037 4.17-6.533 4.515-10.568 0.404-4.732-2.225-8.845-6.606-10.029zm-32.139 53.597c-0.269 0.044-0.542 0.07-0.805 0.137-4.76 1.216-9.258 3.08-13.621 5.33-5.051 2.604-8.65 6.537-11.036 11.633-0.479 1.023-0.808 2.115-1.206 3.176 0.554-0.358 0.855-0.821 1.178-1.267 3.213-4.453 6.847-8.476 11.587-11.378 2.494-1.527 5.141-2.047 8.006-1.391 0.492 0.112 0.994 0.185 1.604 0.296 0.454-2.865 2.178-4.777 4.293-6.536zm84.874-34.841c0.384-8.277-7.03-17.933-14.685-19.639 0.806 1.705 1.654 3.534 2.541 5.344 0.166 0.338 0.438 0.666 0.741 0.889 3.647 2.676 6.569 6.007 8.983 9.812 0.736 1.159 1.533 2.28 2.42 3.594zm-56.356 47.507c-0.367-0.501-0.611-0.848-0.868-1.184-1.401-1.834-2.839-3.642-4.201-5.505-1.896-2.593-1.007-2.472-4.494-1.586-1.18 0.3-2.301 0.832-3.661 1.336 2.114 0.869 3.917 1.675 4.362 3.806 0.437 2.087-0.34 3.801-2.208 5.041 3.888 0.356 7.195-1.793 11.07-1.908zm103.51-53.578c2.056-3.261 4.215-6.668 6.35-10.091 0.247-0.396 0.64-1.097 0.496-1.271-0.497-0.604-1.137-1.269-1.845-1.464-0.571-0.157-1.458 0.158-1.967 0.563-2.354 1.874-4.047 4.25-4.912 7.163-0.094 0.313-0.128 0.723-5e-3 1.007 0.647 1.489 1.353 2.954 1.883 4.093zm-9.182-5.487c0.425 2.297 0.81 4.481 1.251 6.653 0.065 0.32 0.338 0.736 0.62 0.854 2.976 1.236 4.422 3.603 5.031 6.622 0.109 0.544 0.147 1.13 0.393 1.608 0.16 0.312 0.625 0.613 0.97 0.633 0.219 0.013 0.607-0.471 0.672-0.783 0.108-0.532 0.117-1.125 3e-3 -1.657-1.086-5.068-3.234-9.618-6.686-13.524-0.655-0.743-1.382-0.809-2.254-0.406zm-49.204 2.851c-0.159 0.933-0.355 1.63-0.372 2.333-0.012 0.496 0.082 1.1 0.365 1.48 1.611 2.163 3.293 4.275 4.955 6.401 0.608 0.778 1.229 1.547 1.844 2.32-0.154-5.325-3.118-9.022-6.792-12.534zm50.84 7.879c0.492 2.32-0.249 4.651 1.588 6.377 0.228-2.2 0.961-4.508-1.588-6.377z"/>
	<path d="m251.8 258.85c3.228 0.187 6.348-0.268 9.258-1.747 3.163-1.609 5.305-4.121 6.48-7.464 0.092-0.262 0.154-0.538 0.277-0.785 0.462-0.924 1.186-1.396 2.235-1.124 0.941 0.244 1.495 1.208 1.248 2.267-0.64 2.742-2.039 5.09-3.975 7.096-3.114 3.228-7.015 4.928-11.416 5.368-2.238 0.225-4.517 0.099-6.775 0.035-1.261-0.035-2.053-0.893-2.008-1.919 0.047-1.053 0.892-1.727 2.169-1.728 0.837 1e-3 1.672 1e-3 2.507 1e-3z"/>
	<path d="m259.35 245.71c3.057-0.086 3.679 0.47 3.914 2.585 0.208 1.871-0.069 3.457-2.018 4.362-1.527 0.709-2.927 1.741-4.502 2.287-1.612 0.56-3.234 0.167-4.486-1.143-1.072-1.122-1.188-1.983-0.401-3.33 1.875-3.206 4.806-4.589 7.493-4.761z"/>
</g>
</svg>